<?xml version="1.0" encoding="UTF-8"?>
<svg id="blu" xmlns="http://www.w3.org/2000/svg" viewBox="0 0 4115.62 2315.37">
  <defs>
    <style>
      .cls-1 {
        fill: #292a5f;
        stroke-width: 0px;
      }
    </style>
  </defs>
  <g id="Livello_2" data-name="Livello 2">
    <path class="cls-1" d="m1441.24,1536.7l464.66-1083.35h233.61l487.76,1083.35c-13.47,2.37-219.84,36.12-290.09-73.16-7.31-11.37-13.78-25.28-17.97-42.36,21.05,15.22,57.01,36.57,105.72,44.58,18.97,3.12,36.19,3.61,50.88,2.91-98.57-64.82-150.95-134.67-179.63-182.75-69.76-116.99-90.39-258.08-97.63-307.58-16.99-116.21-6.66-180.63-59.05-233.61-34.8-35.2-79.74-47.6-111.67-52.63-20.54,74.02-41.07,148.04-61.61,222.06-3.61-.09-7.11.15-10.51.68-73.27,11.38-104.59,159.34-111.43,194.43-25.17,9.88-58.95,26.33-93.7,53.91-44.44,35.27-71.71,73.86-87.28,100.12,16.17,3.61,35.63,6.7,57.76,7.7,26.4,1.2,49.47-.89,68.03-3.85-4.66,15.16-15.32,42.75-39.79,69.31-25.36,27.53-53.12,40.47-68.03,46.21,7.93,3.7,24.52,10.14,46.21,8.98,23.36-1.24,40.1-10.64,47.49-15.4-1.47,27.24-8.65,47.93-16.84,63.43-43.69,82.6-170.13,119.19-316.89,97.02Z"/>
    <path class="cls-1" d="m1949.97,963.37c-7.57,5.54-18.89,15.25-28.67,30.38-9.13,14.14-13.34,27.49-15.4,36.37,4.21,2.15,10.3,4.68,17.97,5.99,10.39,1.78,19.06.55,24.39-.64,1.51-10.5,2.66-22.33,3-35.3.35-13.53-.23-25.88-1.28-36.8Z"/>
    <g>
      <path class="cls-1" d="m1554.27,1765.56h-58.02l-10.13,32.81h-45.24l64.42-175.64h39.81l64.9,175.64h-45.48l-10.25-32.81Zm-47.89-32.69h37.76l-18.94-60.92-18.82,60.92Z"/>
      <path class="cls-1" d="m1674.27,1738.77v59.59h-42.34v-175.64h70.09c13.43,0,25.31,2.47,35.65,7.42,10.33,4.95,18.34,11.98,24.01,21.11,5.67,9.13,8.5,19.48,8.5,31.06,0,17.13-6.13,30.82-18.4,41.08-12.26,10.25-29.09,15.38-50.48,15.38h-27.02Zm0-32.69h27.75c8.2,0,14.46-2.05,18.76-6.15,4.3-4.1,6.45-9.89,6.45-17.37,0-8.2-2.21-14.76-6.63-19.66-4.42-4.91-10.46-7.4-18.09-7.48h-28.23v50.67Z"/>
      <path class="cls-1" d="m1910.8,1723.82h-66.59v41.98h78.65v32.57h-120.99v-175.64h121.24v32.69h-78.89v37.03h66.59v31.36Z"/>
      <path class="cls-1" d="m2013.56,1698.97l32.33-76.24h45.72l-56.58,112.55v63.09h-42.94v-63.09l-56.46-112.55h45.48l32.45,76.24Z"/>
      <path class="cls-1" d="m2178.79,1736.24h-22.92v62.13h-42.34v-175.64h69.12c20.83,0,37.11,4.62,48.86,13.86,11.74,9.24,17.61,22.29,17.61,39.16,0,12.21-2.47,22.33-7.42,30.37-4.95,8.03-12.69,14.54-23.22,19.52l36.67,70.92v1.81h-45.36l-31-62.13Zm-22.92-32.57h26.78c8.04,0,14.09-2.12,18.16-6.35,4.06-4.23,6.09-10.14,6.09-17.72s-2.05-13.52-6.15-17.84c-4.1-4.31-10.13-6.47-18.09-6.47h-26.78v48.37Z"/>
      <path class="cls-1" d="m2432.58,1714.17c0,17.13-3.18,32.29-9.53,45.48-6.35,13.19-15.38,23.34-27.08,30.46s-25.03,10.68-39.99,10.68-28.23-3.44-39.81-10.31c-11.58-6.88-20.61-16.71-27.08-29.5-6.47-12.79-9.87-27.46-10.19-44.03v-9.89c0-17.21,3.16-32.39,9.47-45.54,6.31-13.15,15.36-23.3,27.14-30.46,11.78-7.16,25.19-10.74,40.23-10.74s28.15,3.54,39.81,10.62c11.66,7.08,20.73,17.15,27.2,30.22,6.47,13.07,9.75,28.05,9.83,44.94v8.08Zm-43.06-7.36c0-17.45-2.92-30.7-8.75-39.75-5.83-9.05-14.17-13.57-25.03-13.57-21.23,0-32.45,15.92-33.66,47.77l-.12,12.91c0,17.21,2.85,30.44,8.56,39.69,5.71,9.25,14.19,13.87,25.45,13.87s18.94-4.54,24.73-13.63c5.79-9.09,8.72-22.15,8.81-39.21v-8.08Z"/>
      <path class="cls-1" d="m2610.24,1798.37h-42.1l-62.25-109.29v109.29h-42.34v-175.64h42.34l62.13,109.29v-109.29h42.22v175.64Z"/>
    </g>
    <path class="cls-1" d="m2025.41,1265.92c12.02-13.32,25.73-24.68,41.13-34.08,15.41-9.4,33.64-14.1,54.69-14.1,12.01,0,23.88,2.86,35.6,8.57,11.72,5.71,21.44,14.25,29.18,25.61,7.73,11.36,11.6,25.55,11.6,42.56s-3.87,30.99-11.6,42.29c-7.74,11.3-17.46,19.81-29.18,25.52-11.72,5.71-23.59,8.57-35.6,8.57-21.06,0-39.29-4.64-54.69-13.92-15.41-9.28-29.12-20.58-41.13-33.91-11.9,13.33-25.58,24.63-41.04,33.91-15.47,9.28-33.73,13.92-54.78,13.92-12.02,0-23.91-2.86-35.69-8.57-11.78-5.71-21.56-14.21-29.35-25.52-7.79-11.3-11.69-25.4-11.69-42.29s3.9-31.2,11.69-42.56c7.79-11.36,17.58-19.9,29.35-25.61,11.78-5.71,23.67-8.57,35.69-8.57,21.06,0,39.32,4.7,54.78,14.1,15.46,9.4,29.15,20.76,41.04,34.08Zm-135.27,28.55c0,12.02,3.78,21.59,11.33,28.73,7.55,7.14,16.69,10.71,27.39,10.71,15.7,0,29.32-3.78,40.87-11.33,11.54-7.55,22.07-16.92,31.59-28.11-9.52-11.18-20.05-20.55-31.59-28.11-11.54-7.55-25.16-11.33-40.87-11.33-10.71,0-19.84,3.54-27.39,10.62-7.56,7.08-11.33,16.68-11.33,28.82Zm159.71,0c9.4,11.18,19.84,20.55,31.32,28.11,11.48,7.56,25.07,11.33,40.78,11.33,10.71,0,19.84-3.57,27.39-10.71,7.55-7.14,11.33-16.71,11.33-28.73s-3.78-21.74-11.33-28.82c-7.56-7.08-16.69-10.62-27.39-10.62-15.7,0-29.3,3.78-40.78,11.33-11.48,7.56-21.92,16.92-31.32,28.11Z"/>
  </g>
</svg>