<?xml version="1.0" encoding="UTF-8"?>
<svg id="Livello_1" data-name="Livello 1" xmlns="http://www.w3.org/2000/svg" viewBox="0 0 1697.51 406.43">
  <defs>
    <style>
      .cls-1 {
        fill: #292a5f;
        stroke-width: 0px;
      }
    </style>
  </defs>
  <path class="cls-1" d="m0,403.4L173.02,0h86.99l181.63,403.4c-5.02.88-81.86,13.45-108.02-27.24-2.72-4.23-5.13-9.41-6.69-15.77,7.84,5.67,21.23,13.62,39.37,16.6,7.06,1.16,13.48,1.35,18.95,1.08-36.71-24.14-56.21-50.15-66.89-68.05-25.98-43.56-33.66-96.1-36.35-114.53-6.33-43.27-2.48-67.26-21.99-86.99-12.96-13.11-29.69-17.73-41.58-19.6-7.65,27.56-15.29,55.13-22.94,82.69-1.34-.03-2.65.06-3.91.25-27.28,4.24-38.94,59.33-41.49,72.4-9.37,3.68-21.95,9.81-34.89,20.07-16.55,13.13-26.7,27.5-32.5,37.28,6.02,1.34,13.27,2.49,21.51,2.87,9.83.45,18.42-.33,25.33-1.43-1.74,5.64-5.7,15.92-14.82,25.81-9.44,10.25-19.78,15.07-25.33,17.21,2.95,1.38,9.13,3.78,17.21,3.35,8.7-.46,14.93-3.96,17.68-5.74-.55,10.14-3.22,17.85-6.27,23.62-16.27,30.76-63.35,44.38-118,36.13Z"/>
  <path class="cls-1" d="m189.43,189.91c-2.82,2.06-7.04,5.68-10.67,11.31-3.4,5.27-4.97,10.23-5.74,13.54,1.57.8,3.84,1.74,6.69,2.23,3.87.66,7.1.21,9.08-.24.56-3.91.99-8.31,1.12-13.14.13-5.04-.09-9.64-.48-13.7Z"/>
  <path class="cls-1" d="m217.53,302.57c4.47-4.96,9.58-9.19,15.32-12.69,5.74-3.5,12.53-5.25,20.37-5.25,4.47,0,8.89,1.06,13.26,3.19s7.98,5.31,10.87,9.54c2.88,4.23,4.32,9.51,4.32,15.85s-1.44,11.54-4.32,15.75c-2.88,4.21-6.5,7.38-10.87,9.5-4.36,2.13-8.78,3.19-13.26,3.19-7.84,0-14.63-1.73-20.37-5.18-5.74-3.46-10.84-7.66-15.32-12.62-4.43,4.96-9.53,9.17-15.28,12.62-5.76,3.46-12.56,5.18-20.4,5.18-4.47,0-8.9-1.06-13.29-3.19-4.39-2.13-8.03-5.29-10.93-9.5-2.9-4.21-4.35-9.46-4.35-15.75s1.45-11.62,4.35-15.85c2.9-4.23,6.55-7.41,10.93-9.54s8.81-3.19,13.29-3.19c7.84,0,14.64,1.75,20.4,5.25,5.76,3.5,10.85,7.73,15.28,12.69Zm-50.37,10.63c0,4.47,1.41,8.04,4.22,10.7s6.21,3.99,10.2,3.99c5.85,0,10.92-1.41,15.22-4.22,4.3-2.81,8.22-6.3,11.76-10.47-3.54-4.16-7.46-7.65-11.76-10.47-4.3-2.81-9.37-4.22-15.22-4.22-3.99,0-7.39,1.32-10.2,3.95s-4.22,6.21-4.22,10.73Zm59.47,0c3.5,4.16,7.39,7.65,11.66,10.47,4.27,2.81,9.34,4.22,15.18,4.22,3.99,0,7.39-1.33,10.2-3.99,2.81-2.66,4.22-6.22,4.22-10.7s-1.41-8.1-4.22-10.73c-2.81-2.64-6.21-3.95-10.2-3.95-5.85,0-10.91,1.41-15.18,4.22-4.28,2.81-8.16,6.3-11.66,10.47Z"/>
  <g>
    <path class="cls-1" d="m534.6,330.89v72.6h-51.59v-213.99h85.39c16.36,0,30.84,3.01,43.43,9.04,12.59,6.03,22.34,14.6,29.25,25.72,6.91,11.12,10.36,23.74,10.36,37.85,0,20.87-7.47,37.55-22.41,50.04-14.94,12.49-35.45,18.74-61.51,18.74h-32.92Zm0-39.83h33.8c9.99,0,17.61-2.5,22.85-7.5,5.24-5,7.86-12.05,7.86-21.16,0-9.99-2.7-17.98-8.08-23.96-5.39-5.98-12.74-9.01-22.04-9.11h-34.39v61.73Z"/>
    <path class="cls-1" d="m827.29,312.67h-81.13v51.15h95.83v39.68h-147.41v-213.99h147.71v39.83h-96.12v45.12h81.13v38.21Z"/>
    <path class="cls-1" d="m956.99,282.39l39.39-92.89h55.7l-68.93,137.12v76.87h-52.32v-76.87l-68.78-137.12h55.41l39.54,92.89Z"/>
    <path class="cls-1" d="m1162.83,327.8h-27.93v75.69h-51.59v-213.99h84.22c25.38,0,45.22,5.63,59.52,16.88,14.3,11.26,21.46,27.16,21.46,47.72,0,14.88-3.01,27.21-9.04,37-6.03,9.79-15.46,17.72-28.29,23.79l44.68,86.4v2.21h-55.26l-37.77-75.69Zm-27.93-39.68h32.63c9.8,0,17.17-2.58,22.12-7.74,4.95-5.16,7.42-12.35,7.42-21.59s-2.5-16.48-7.5-21.73c-5-5.25-12.35-7.88-22.04-7.88h-32.63v58.94Z"/>
    <path class="cls-1" d="m1476.54,300.91c0,20.87-3.87,39.34-11.61,55.41-7.74,16.07-18.74,28.44-33,37.11-14.26,8.67-30.5,13.01-48.72,13.01s-34.39-4.19-48.5-12.57c-14.11-8.38-25.11-20.36-33-35.93-7.89-15.58-12.03-33.46-12.42-53.65v-12.05c0-20.97,3.84-39.46,11.54-55.48,7.69-16.02,18.71-28.39,33.07-37.11,14.35-8.72,30.69-13.08,49.02-13.08s34.29,4.31,48.5,12.93c14.21,8.62,25.25,20.9,33.14,36.82,7.89,15.92,11.88,34.17,11.98,54.75v9.85Zm-52.47-8.97c0-21.26-3.55-37.4-10.66-48.43-7.11-11.02-17.27-16.53-30.5-16.53-25.87,0-39.54,19.4-41,58.2l-.15,15.73c0,20.97,3.48,37.09,10.43,48.35,6.96,11.27,17.29,16.9,31.01,16.9s23.07-5.53,30.13-16.61c7.05-11.07,10.63-26.99,10.73-47.77v-9.85Z"/>
    <path class="cls-1" d="m1697.51,403.49h-51.29l-75.84-133.16v133.16h-51.59v-213.99h51.59l75.69,133.16v-133.16h51.44v213.99Z"/>
  </g>
</svg>