<?xml version="1.0" encoding="UTF-8"?>
<svg id="blu" xmlns="http://www.w3.org/2000/svg" viewBox="0 0 4115.62 2315.37">
  <defs>
    <style>
      .cls-1 {
        fill: #292a5f;
        stroke-width: 0px;
      }
    </style>
  </defs>
  <g id="Livello_2" data-name="Livello 2">
    <path class="cls-1" d="m1441.24,1698.49l464.66-1083.35h233.61l487.76,1083.35c-13.47,2.37-219.84,36.12-290.09-73.16-7.31-11.37-13.78-25.28-17.97-42.36,21.05,15.22,57.01,36.57,105.72,44.58,18.97,3.12,36.19,3.61,50.88,2.91-98.57-64.82-150.95-134.67-179.63-182.75-69.76-116.99-90.39-258.08-97.63-307.58-16.99-116.21-6.66-180.63-59.05-233.61-34.8-35.2-79.74-47.6-111.67-52.63-20.54,74.02-41.07,148.04-61.61,222.06-3.61-.09-7.11.15-10.51.68-73.27,11.38-104.59,159.34-111.43,194.43-25.17,9.88-58.95,26.33-93.7,53.91-44.44,35.27-71.71,73.86-87.28,100.12,16.17,3.61,35.63,6.7,57.76,7.7,26.4,1.2,49.47-.89,68.03-3.85-4.66,15.16-15.32,42.75-39.79,69.31-25.36,27.53-53.12,40.47-68.03,46.21,7.93,3.7,24.52,10.14,46.21,8.98,23.36-1.24,40.1-10.64,47.49-15.4-1.47,27.24-8.65,47.93-16.84,63.43-43.69,82.6-170.13,119.19-316.89,97.02Z"/>
    <path class="cls-1" d="m1958.99,1125.15c-7.57,5.54-18.89,15.25-28.67,30.38-9.13,14.14-13.34,27.49-15.4,36.37,4.21,2.15,10.3,4.68,17.97,5.99,10.39,1.78,19.06.55,24.39-.64,1.51-10.5,2.66-22.33,3-35.3.35-13.53-.23-25.88-1.28-36.8Z"/>
    <path class="cls-1" d="m2034.43,1427.7c12.02-13.32,25.73-24.68,41.13-34.08,15.41-9.4,33.64-14.1,54.69-14.1,12.01,0,23.88,2.86,35.6,8.57,11.72,5.71,21.44,14.25,29.18,25.61,7.73,11.36,11.6,25.55,11.6,42.56s-3.87,30.99-11.6,42.29c-7.74,11.3-17.46,19.81-29.18,25.52-11.72,5.71-23.59,8.57-35.6,8.57-21.06,0-39.29-4.64-54.69-13.92-15.41-9.28-29.12-20.58-41.13-33.91-11.9,13.33-25.58,24.63-41.04,33.91-15.47,9.28-33.73,13.92-54.78,13.92-12.02,0-23.91-2.86-35.69-8.57-11.78-5.71-21.56-14.21-29.35-25.52-7.79-11.3-11.69-25.4-11.69-42.29s3.9-31.2,11.69-42.56c7.79-11.36,17.58-19.9,29.35-25.61,11.78-5.71,23.67-8.57,35.69-8.57,21.06,0,39.32,4.7,54.78,14.1,15.46,9.4,29.15,20.76,41.04,34.08Zm-135.27,28.55c0,12.02,3.78,21.59,11.33,28.73,7.55,7.14,16.69,10.71,27.39,10.71,15.7,0,29.32-3.78,40.87-11.33,11.54-7.55,22.07-16.92,31.59-28.11-9.52-11.18-20.05-20.55-31.59-28.11-11.54-7.55-25.16-11.33-40.87-11.33-10.71,0-19.84,3.54-27.39,10.62-7.56,7.08-11.33,16.68-11.33,28.82Zm159.71,0c9.4,11.18,19.84,20.55,31.32,28.11,11.48,7.56,25.07,11.33,40.78,11.33,10.71,0,19.84-3.57,27.39-10.71,7.55-7.14,11.33-16.71,11.33-28.73s-3.78-21.74-11.33-28.82c-7.56-7.08-16.69-10.62-27.39-10.62-15.7,0-29.3,3.78-40.78,11.33-11.48,7.56-21.92,16.92-31.32,28.11Z"/>
  </g>
</svg>